<svg id="Layer_1" data-name="Layer 1" xmlns="http://www.w3.org/2000/svg" viewBox="0 0 879.52 548.44"><defs><style>.cls-1{fill:#616161;}.cls-2{fill:none;stroke:#e0e0e0;stroke-linecap:round;stroke-linejoin:round;stroke-width:2px;}.cls-3{fill:#ffa726;}.cls-4{fill:#0097a7;}</style></defs><title>Untitled-2</title><path class="cls-1" d="M1052.84,572.57H329.64a42.52,42.52,0,0,1-42.47-42.47V136.18a42.52,42.52,0,0,1,42.47-42.47h723.2a42.52,42.52,0,0,1,42.47,42.47V530.1A42.52,42.52,0,0,1,1052.84,572.57ZM329.64,120.21a16,16,0,0,0-16,16V530.1a16,16,0,0,0,16,16h723.2a16,16,0,0,0,16-16V136.18a16,16,0,0,0-16-16Z" transform="translate(-251.48 -93.71)"/><rect class="cls-1" y="500.35" width="879.52" height="34.21" rx="2.5" ry="2.5"/><rect class="cls-1" x="27.35" y="525.4" width="824.82" height="23.04" rx="2.05" ry="2.05"/><rect class="cls-2" x="134.25" y="83.93" width="611.02" height="311"/><line class="cls-2" x1="745.27" y1="135.76" x2="134.25" y2="135.76"/><line class="cls-2" x1="745.27" y1="187.6" x2="134.25" y2="187.6"/><line class="cls-2" x1="745.27" y1="239.43" x2="134.25" y2="239.43"/><line class="cls-2" x1="745.27" y1="291.26" x2="134.25" y2="291.26"/><line class="cls-2" x1="745.27" y1="343.1" x2="134.25" y2="343.1"/><rect class="cls-1" x="937.51" y="282.49" width="28.09" height="205.75" transform="translate(1651.64 677.01) rotate(180)"/><rect class="cls-3" x="885.26" y="257.22" width="28.09" height="231.01" transform="translate(1547.13 651.75) rotate(180)"/><rect class="cls-4" x="833.01" y="212.22" width="28.09" height="276.02" transform="translate(1442.62 606.74) rotate(180)"/><rect class="cls-1" x="780.75" y="325.99" width="28.09" height="162.25" transform="translate(1338.12 720.51) rotate(180)"/><rect class="cls-3" x="728.5" y="257.8" width="28.09" height="230.43" transform="translate(1233.61 652.33) rotate(180)"/><rect class="cls-1" x="676.25" y="302.2" width="28.09" height="186.03" transform="translate(1129.11 696.73) rotate(180)"/><rect class="cls-4" x="623.99" y="212.22" width="28.09" height="276.02" transform="translate(1024.6 606.74) rotate(180)"/><rect class="cls-3" x="571.74" y="273.9" width="28.09" height="214.34" transform="translate(920.09 668.42) rotate(180)"/><rect class="cls-1" x="519.49" y="302.2" width="28.09" height="186.03" transform="translate(815.59 696.73) rotate(180)"/><rect class="cls-4" x="467.23" y="257.22" width="28.09" height="231.01" transform="translate(711.08 651.75) rotate(180)"/><rect class="cls-3" x="414.98" y="257.8" width="28.09" height="230.43" transform="translate(606.57 652.33) rotate(180)"/></svg>